<?xml version="1.0" standalone="no"?>
<!DOCTYPE svg PUBLIC "-//W3C//DTD SVG 20010904//EN"
 "http://www.w3.org/TR/2001/REC-SVG-20010904/DTD/svg10.dtd">
<svg version="1.0" xmlns="http://www.w3.org/2000/svg"
 width="401.000000pt" height="401.000000pt" viewBox="0 0 401.000000 401.000000"
 preserveAspectRatio="xMidYMid meet">
<metadata>
Created by potrace 1.11, written by Peter Selinger 2001-2013
</metadata>
<g transform="translate(0.000000,401.000000) scale(0.100000,-0.100000)"
fill="#000000" stroke="none">
<path d="M1765 3995 c-389 -50 -751 -204 -1035 -440 -99 -82 -260 -251 -332
-346 -262 -349 -398 -759 -398 -1199 0 -527 192 -1007 556 -1390 536 -562
1337 -758 2089 -509 630 209 1130 750 1295 1404 85 334 78 718 -20 1056 -192
669 -745 1203 -1422 1374 -224 57 -520 77 -733 50z"/>
</g>
</svg>
